# xmcd CD database file
#
# Track frame offsets:
#	150
#	16277
#	45133
#	61252
#	89352
#	111234
#	127967
#	146241
#	163518
#	184184
#
# Disc length: 2758 seconds
#
# Revision: 0
# Processed by: cddbd v1.5.1PL0 Copyright (c) Steve Scherf et al.
# Submitted via: CDex 1.51
#
DISCID=7e0ac40a
DTITLE=Pierre Audetat - Ghost Note
DYEAR=2003
DGENRE=Jazz
TTITLE0=teleportation
TTITLE1=strayhorn
TTITLE2=pflon
TTITLE3=le sequencer du spectateur
TTITLE4=liden
TTITLE5=calimero
TTITLE6=otite
TTITLE7=reveil en biere
TTITLE8=musicotherapik
TTITLE9=the
EXTD=YEAR: 2003
EXTT0=
EXTT1=
EXTT2=
EXTT3=
EXTT4=
EXTT5=
EXTT6=
EXTT7=
EXTT8=
EXTT9=
PLAYORDER=
